<svg width="24" height="24" viewBox="0 0 24 24" fill="none" xmlns="http://www.w3.org/2000/svg">
<g clip-path="url(#clip0_10615_4444)">
<path d="M12 0.799988C5.8069 0.799988 0.800049 5.80684 0.800049 12C0.800049 18.1931 5.8069 23.2 12 23.2C18.1932 23.2 23.2 18.1931 23.2 12C23.2 5.80684 18.1932 0.799988 12 0.799988ZM12 2.66665C17.1936 2.66665 21.3334 6.80647 21.3334 12C21.3334 17.1935 17.1936 21.3333 12 21.3333C6.80653 21.3333 2.66672 17.1935 2.66672 12C2.66672 6.80647 6.80653 2.66665 12 2.66665ZM6.40005 11.0667C6.27637 11.0649 6.15358 11.0878 6.03881 11.1339C5.92404 11.18 5.81958 11.2485 5.7315 11.3353C5.64342 11.4221 5.57348 11.5256 5.52574 11.6397C5.47801 11.7538 5.45342 11.8763 5.45342 12C5.45342 12.1237 5.47801 12.2461 5.52574 12.3602C5.57348 12.4743 5.64342 12.5778 5.7315 12.6647C5.81958 12.7515 5.92404 12.82 6.03881 12.8661C6.15358 12.9122 6.27637 12.9351 6.40005 12.9333H9.20005C9.32373 12.9351 9.44652 12.9122 9.56129 12.8661C9.67606 12.82 9.78052 12.7515 9.8686 12.6647C9.95668 12.5778 10.0266 12.4743 10.0744 12.3602C10.1221 12.2461 10.1467 12.1237 10.1467 12C10.1467 11.8763 10.1221 11.7538 10.0744 11.6397C10.0266 11.5256 9.95668 11.4221 9.8686 11.3353C9.78052 11.2485 9.67606 11.18 9.56129 11.1339C9.44652 11.0878 9.32373 11.0649 9.20005 11.0667H6.40005ZM14.8 11.0667C14.6764 11.0649 14.5536 11.0878 14.4388 11.1339C14.324 11.18 14.2196 11.2485 14.1315 11.3353C14.0434 11.4221 13.9735 11.5256 13.9257 11.6397C13.878 11.7538 13.8534 11.8763 13.8534 12C13.8534 12.1237 13.878 12.2461 13.9257 12.3602C13.9735 12.4743 14.0434 12.5778 14.1315 12.6647C14.2196 12.7515 14.324 12.82 14.4388 12.8661C14.5536 12.9122 14.6764 12.9351 14.8 12.9333H17.6C17.7237 12.9351 17.8465 12.9122 17.9613 12.8661C18.0761 12.82 18.1805 12.7515 18.2686 12.6647C18.3567 12.5778 18.4266 12.4743 18.4744 12.3602C18.5221 12.2461 18.5467 12.1237 18.5467 12C18.5467 11.8763 18.5221 11.7538 18.4744 11.6397C18.4266 11.5256 18.3567 11.4221 18.2686 11.3353C18.1805 11.2485 18.0761 11.18 17.9613 11.1339C17.8465 11.0878 17.7237 11.0649 17.6 11.0667H14.8ZM13.4 15.7333C12.6534 15.7333 12 16.3867 12 17.1333C12 17.88 12.6534 18.5333 13.4 18.5333C14.1467 18.5333 14.8 17.88 14.8 17.1333C14.8 16.3867 14.1467 15.7333 13.4 15.7333Z" fill="white"/>
</g>
<defs>
<clipPath id="clip0_10615_4444">
<rect width="24" height="24" fill="white"/>
</clipPath>
</defs>
</svg>
