<svg width="19" height="18" viewBox="0 0 19 18" fill="none" xmlns="http://www.w3.org/2000/svg">
<path d="M9.5001 0.624023C6.55679 0.624023 4.15464 2.73791 4.15464 5.32802V6.67202H2.62737C1.78355 6.67202 1.1001 7.27346 1.1001 8.01602V16.08C1.1001 16.8226 1.78355 17.424 2.62737 17.424H16.3728C17.2166 17.424 17.9001 16.8226 17.9001 16.08V8.01602C17.9001 7.27346 17.2166 6.67202 16.3728 6.67202H5.68192V5.32802C5.68192 3.46412 7.38203 1.96802 9.5001 1.96802C11.1681 1.96802 12.5721 2.90524 13.096 4.20846C13.1278 4.29361 13.1785 4.37232 13.2453 4.43995C13.3121 4.50759 13.3936 4.56279 13.485 4.60231C13.5763 4.64183 13.6758 4.66486 13.7774 4.67006C13.8791 4.67526 13.9809 4.66252 14.0769 4.63259C14.1729 4.60266 14.2611 4.55614 14.3363 4.49577C14.4116 4.4354 14.4723 4.36239 14.515 4.28105C14.5578 4.19971 14.5816 4.11168 14.585 4.02212C14.5885 3.93257 14.5716 3.84331 14.5353 3.75959C13.8008 1.93263 11.8198 0.624023 9.5001 0.624023Z" fill="white"/>
</svg>
