<svg width="19" height="18" viewBox="0 0 19 18" fill="none" xmlns="http://www.w3.org/2000/svg">
<path d="M16.7 8.99999C16.7 8.77439 16.5704 8.58539 16.3862 8.48279L16.3898 8.47679L4.4498 1.91159L4.4378 1.91759C4.3406 1.84919 4.2284 1.79999 4.1 1.79999C3.7688 1.79999 3.5 2.06879 3.5 2.39999C3.5 2.40059 3.5006 2.40119 3.5006 2.40239H3.5V8.99999V15.5976H3.5006C3.5006 15.5988 3.5 15.5994 3.5 15.6C3.5 15.9312 3.7688 16.2 4.1 16.2C4.2284 16.2 4.3406 16.1508 4.4384 16.0824L4.4498 16.0884L16.3898 9.52319L16.3862 9.51719C16.5704 9.41459 16.7 9.22559 16.7 8.99999Z" fill="white"/>
</svg>
