<svg width="290" height="230" viewBox="0 0 290 230" fill="none" xmlns="http://www.w3.org/2000/svg">
<g clip-path="url(#clip0_1344_6174)">
<path d="M162.518 5.86499C161.217 5.66765 159.597 5.60951 157.657 5.69085C155.485 5.81859 153.853 5.88847 152.761 5.89993C150.366 5.89993 148.037 5.66192 145.775 5.18562C145.896 4.80727 145.965 4.40056 145.984 3.96608C146.042 2.58385 145.583 1.50379 144.608 0.72561C143.644 -0.0640271 142.488 -0.209237 141.141 0.290265C139.793 0.801224 139.062 1.6722 138.946 2.9032C136.12 3.2615 133.715 4.92842 131.733 7.90338C130.09 10.3794 128.65 13.0158 127.412 15.8132C124.683 21.9691 123.201 28.334 122.969 34.908C122.9 36.7895 123.114 38.2123 123.614 39.1764C123.962 39.8615 124.462 40.396 125.112 40.7792C125.798 41.1856 126.477 41.2901 127.151 41.0928C128.103 40.8488 128.898 40.0823 129.537 38.7932C129.874 38.1193 130.443 36.4526 131.245 33.793C131.872 31.7022 132.627 30.1576 133.51 29.1586C134.532 28.0204 135.891 27.2015 137.586 26.702C139.05 26.2724 140.682 26.104 142.482 26.1968C143.504 26.2549 145.119 26.4523 147.326 26.7891C149.416 27.1145 151.025 27.2943 152.151 27.3293C154.916 27.3989 157.616 26.8996 160.253 25.831C162.889 24.7507 165.166 23.2175 167.082 21.2316C167.249 21.0591 167.412 20.885 167.57 20.7089C168.746 19.3828 169.605 17.9656 170.149 16.4579C170.834 14.5181 170.857 12.7294 170.218 11.0917C169.672 9.65164 168.644 8.46102 167.134 7.52016C165.799 6.67238 164.26 6.12075 162.518 5.86499ZM204.436 111.374C204.017 111.385 202.705 111.217 200.498 110.869C198.349 110.654 196.217 110.694 194.104 110.991C192.45 111.23 190.806 111.624 189.174 112.175C188.337 112.419 187.826 112.785 187.64 113.273C187.513 113.61 187.548 113.958 187.745 114.318C187.919 114.655 188.175 114.928 188.512 115.137C189.023 115.462 189.894 115.689 191.125 115.817C191.26 115.832 191.388 115.849 191.508 115.869C192.55 116.007 193.293 116.216 193.738 116.496C194.447 116.949 194.958 117.71 195.271 118.778C195.434 119.324 195.591 120.288 195.742 121.67C196.124 126.029 197.372 130.192 199.488 134.162C199.564 134.295 199.64 134.428 199.714 134.563C200.109 135.388 200.556 135.899 201.056 136.096C201.741 136.375 202.426 136.206 203.111 135.591C203.704 135.045 204.139 134.342 204.418 133.483C204.948 131.714 205.099 129.624 204.871 127.211C204.822 126.667 204.753 126.104 204.662 125.521C203.884 121.932 203.35 119.243 203.059 117.454C202.896 116.513 203.001 115.857 203.373 115.486C203.663 115.207 204.186 115.085 204.941 115.12C205.765 115.166 206.329 115.102 206.631 114.928C207.177 114.638 207.397 114.121 207.293 113.377C207.188 112.657 206.851 112.129 206.282 111.792C205.783 111.502 205.167 111.362 204.436 111.374ZM30.6142 75.9895C30.1379 76.5586 29.9521 77.1684 30.0566 77.8188C30.1729 78.4693 30.5504 78.9802 31.1891 79.352C31.8281 79.712 32.4553 79.7816 33.0708 79.5611C33.4658 79.4101 34.0581 78.9513 34.8477 78.1846C35.5331 77.5227 36.1429 77.1684 36.677 77.122C37.1419 77.0988 37.5889 77.2554 38.0186 77.5923C38.4367 77.9059 38.7446 78.3008 38.942 78.7769C39.0929 79.1718 39.2092 79.6538 39.2905 80.2229C39.3137 80.4206 39.3601 80.9258 39.43 81.7386C39.6273 83.9108 40.2022 86.0073 41.1548 88.0282C42.1186 90.0374 43.3848 91.8029 44.9526 93.3246C45.9284 94.2769 46.8168 94.6951 47.6182 94.5791C48.5127 94.4745 49.2791 93.7774 49.9181 92.4883C49.9757 92.3763 50.0278 92.26 50.0748 92.1397C51.0913 90.0526 51.6546 87.6542 51.7649 84.9445C51.8577 82.6099 51.6197 79.9849 51.0506 77.0696C50.9343 76.489 50.8762 76.0476 50.8762 75.7455C50.8879 75.2577 51.0214 74.857 51.2769 74.5434C51.6137 74.1484 52.1364 73.9686 52.845 74.0032C53.1586 74.015 53.7798 74.1252 54.7092 74.3343C55.3711 74.4853 55.9926 74.4389 56.5732 74.1948C57.2354 73.9279 57.5433 73.5097 57.4966 72.9406C57.4734 72.4529 57.0844 71.9998 56.3294 71.5816C55.3536 71.0589 54.1805 70.7106 52.81 70.5362C51.9158 70.4202 50.6614 70.3621 49.0469 70.3621C46.5929 70.3621 44.5485 70.4259 42.9142 70.5537C42.3073 70.6115 41.7554 70.6754 41.2593 70.7453C38.4021 71.152 36.0034 71.9708 34.0638 73.2019C32.252 74.491 31.102 75.4204 30.6142 75.9895ZM67.5319 155.487C66.2974 155.325 65.136 155.255 64.0474 155.278C63.5012 155.289 62.5082 155.515 61.0681 155.957C60.1276 156.584 59.3087 157.351 58.6116 158.257C57.8915 159.175 57.3456 160.162 56.9739 161.219C56.8696 161.509 56.8229 161.782 56.8347 162.038C56.8461 162.34 56.9507 162.56 57.1483 162.7C57.4152 162.839 57.6999 162.816 58.0018 162.63C58.2458 162.468 58.4549 162.229 58.629 161.916C58.8963 161.486 59.0822 161.213 59.1867 161.097C59.419 160.818 59.6687 160.673 59.9357 160.661C60.3538 160.661 60.7777 161.021 61.2076 161.742C61.5447 162.368 61.8701 162.99 62.1831 163.606C63.0959 165.378 63.9148 167.097 64.6397 168.763C64.8488 169.193 64.9651 169.436 64.9883 169.494C65.1392 169.762 65.3019 169.982 65.476 170.156C65.7083 170.342 65.958 170.47 66.2253 170.54C66.5157 170.609 66.7712 170.58 66.9917 170.452C67.3867 170.267 67.6364 169.878 67.741 169.285C67.9615 168.356 67.863 167.224 67.4448 165.888C66.8872 164.39 66.5039 163.269 66.2949 162.525C66.0508 161.724 66.0219 161.045 66.2078 160.487C66.4051 160.022 66.7537 159.657 67.2532 159.389C67.7292 159.134 68.2519 159.006 68.821 159.006C69.2392 158.983 69.7619 159.029 70.3891 159.145C71.3764 159.331 71.8991 159.43 71.9572 159.442C72.6309 159.581 73.2289 159.552 73.7516 159.355C74.0303 159.239 74.2626 159.058 74.4484 158.815C74.6343 158.547 74.7214 158.274 74.7099 157.996C74.64 157.206 73.9257 156.683 72.567 156.428C70.4066 155.951 68.7282 155.638 67.5319 155.487ZM83.2814 179.738C83.2238 179.638 83.0439 179.377 82.7412 178.955C81.6165 179.221 80.6991 179.505 79.9888 179.808C78.5716 180.401 77.5205 181.202 76.8354 182.213C75.9759 183.478 75.5984 185.25 75.7029 187.526C75.7662 188.578 75.9114 189.618 76.1386 190.645C76.384 191.692 76.7148 192.725 77.1315 193.746C77.9447 195.744 79.0362 197.562 80.407 199.199C80.6275 199.443 80.7959 199.611 80.9122 199.705C81.1213 199.879 81.3303 199.971 81.5394 199.983C82.0272 200.065 82.4279 199.832 82.7412 199.286C83.0202 198.81 83.1422 198.276 83.1072 197.683C83.0812 196.862 82.8896 195.852 82.5324 194.652C82.2566 193.717 81.8791 192.666 81.3999 191.499C80.2849 188.781 79.6926 186.719 79.6228 185.314C79.6228 184.791 79.6984 184.425 79.8493 184.216C80.0469 183.903 80.4591 183.717 81.0863 183.659C81.8992 183.589 82.4161 183.502 82.637 183.397C83.2522 183.153 83.6065 182.631 83.6995 181.829C83.7809 181.098 83.6417 180.401 83.2814 179.738ZM61.2426 177.038C60.1972 177.038 59.4132 177.224 58.8905 177.596C58.1356 178.153 57.7581 179.199 57.7581 180.732C57.8045 181.963 58.0367 183.24 58.4549 184.565C59.2445 187.224 60.4816 189.129 62.1659 190.279C62.642 190.651 63.0891 190.796 63.5072 190.715C63.763 190.668 63.9892 190.54 64.1869 190.331C64.3728 190.134 64.512 189.896 64.605 189.617C64.8373 188.978 64.8662 188.235 64.6921 187.387C64.5758 186.783 64.3261 186.046 63.9429 185.174C63.5015 184.233 63.2111 183.513 63.0719 183.014C62.8278 182.189 62.7697 181.446 62.8974 180.784C64.4865 180.814 66.0546 181.064 67.6015 181.533C66.6406 180.092 65.8045 178.611 65.0928 177.09C63.7146 177.004 62.4312 176.986 61.2426 177.038Z" fill="#2D3F58"/>
<path d="M121.14 197.995C118.667 197.88 115.885 197.938 112.795 198.17C109.357 198.46 106.778 198.658 105.059 198.762C102.098 198.948 99.5308 198.966 97.3587 198.814C92.1772 198.434 87.2349 197.046 82.5325 194.65C82.8897 195.85 83.0813 196.861 83.1074 197.682C83.1423 198.274 83.0203 198.809 82.7413 199.285C82.428 199.831 82.0273 200.063 81.5396 199.982C81.3305 199.97 81.1214 199.877 80.9123 199.703C80.796 199.61 80.6276 199.442 80.4071 199.198C79.0363 197.56 77.9448 195.742 77.1317 193.745C76.7149 192.724 76.3841 191.69 76.1387 190.643C73.1981 188.383 70.6313 185.747 68.4379 182.734C68.1487 182.336 67.87 181.935 67.6016 181.532C66.0547 181.062 64.4866 180.812 62.8976 180.782C62.7698 181.445 62.828 182.188 63.072 183.012C63.2112 183.512 63.5016 184.232 63.943 185.173C64.3262 186.044 64.576 186.782 64.6922 187.385C64.8664 188.233 64.8375 188.977 64.6052 189.616C64.5121 189.894 64.3729 190.132 64.187 190.33C63.9894 190.539 63.7631 190.667 63.5074 190.713C63.0892 190.795 62.6421 190.649 62.1661 190.278C60.4817 189.128 59.2447 187.223 58.455 184.563C58.0369 183.239 57.8046 181.961 57.7582 180.73C57.7582 179.197 58.1357 178.152 58.8907 177.594C59.4134 177.223 60.1973 177.037 61.2427 177.037C62.4313 176.985 63.7147 177.002 65.0929 177.089C64.0888 174.938 63.3338 172.708 62.828 170.399C62.3207 168.064 62.1059 165.799 62.1833 163.604C61.8702 162.988 61.5449 162.367 61.2078 161.74C60.7778 161.02 60.354 160.66 59.9358 160.66C59.6689 160.671 59.4191 160.817 59.1868 161.095C59.0823 161.212 58.8964 161.485 58.6292 161.914C58.455 162.228 58.246 162.466 58.0019 162.628C57.7001 162.814 57.4154 162.838 57.1484 162.698C56.9508 162.559 56.8463 162.338 56.8348 162.036C56.8231 161.781 56.8698 161.508 56.974 161.217C57.3458 160.16 57.8917 159.173 58.6117 158.256C59.3088 157.35 60.1277 156.583 61.0683 155.956C62.5083 155.514 63.5013 155.287 64.0475 155.276C65.6265 151.735 68.1355 148.831 71.5739 146.565C72.9469 145.661 74.3291 144.959 75.7205 144.457C75.2943 144.088 74.8241 143.664 74.3091 143.185C72.9154 141.908 71.9107 140.862 71.2952 140.05C70.3197 138.783 69.7563 137.523 69.6053 136.269C69.5357 135.614 69.5647 134.963 69.6924 134.318C62.7332 134.269 55.9615 135.739 49.3781 138.725C49.1094 138.844 48.8422 138.966 48.5767 139.091C45.6395 140.478 42.91 142.086 40.3882 143.917C41.4828 166.917 50.3215 186.709 66.9048 203.292C73.7741 210.161 81.1901 215.701 89.153 219.913C93.9776 218.328 99.0184 217.266 104.275 216.725C114.996 215.621 125.275 216.823 135.113 220.331C140.178 222.125 145.44 224.663 150.897 227.944C162.172 225.58 172.573 221.097 182.1 214.495C176.753 215.232 170.748 214.989 164.086 213.763C159.183 213.342 154.461 212.576 149.922 211.463C146.846 210.72 143.855 209.814 140.949 208.745C139.463 208.208 137.999 207.628 136.559 207.003C130.952 204.582 125.813 201.58 121.14 197.995ZM89.0834 144.143C88.8422 144.541 88.5692 144.906 88.2645 145.241C90.1826 146.185 92.0409 147.515 93.8395 149.231C94.7374 150.083 95.6433 151.059 96.5573 152.158C96.4608 149.164 96.571 146.138 96.8884 143.081C96.0741 142.521 95.2378 141.981 94.3797 141.461C92.9067 140.569 91.4142 139.761 89.9022 139.039C90.0552 139.695 90.113 140.351 90.0763 141.008C90.0182 142.111 89.6871 143.156 89.0834 144.143Z" fill="#BDD752"/>
<path d="M139.888 121.896C138.111 120.886 136.171 120.189 134.069 119.806C131.881 119.426 129.564 119.391 127.118 119.701C128.487 122.269 130.27 124.609 132.466 126.722C135.219 129.37 138.558 131.653 142.484 133.569C144.23 134.421 146.105 135.205 148.111 135.921C147.869 134.23 147.567 132.761 147.205 131.513C146.566 129.295 145.672 127.425 144.522 125.903C143.326 124.301 141.781 122.965 139.888 121.896ZM88.266 145.242C86.9706 144.599 85.6465 144.135 84.2935 143.848C81.3959 143.234 78.5386 143.438 75.722 144.458C76.2616 144.917 76.7322 145.289 77.1332 145.573C78.2482 146.375 79.3283 146.932 80.3737 147.246C81.4423 147.571 82.5398 147.669 83.6663 147.542C84.8045 147.414 85.8384 147.065 86.7675 146.496C87.3323 146.145 87.8318 145.727 88.266 145.242Z" fill="#692C91"/>
<path d="M159.334 144.662C160.203 142.907 160.981 141.31 161.668 139.871C159.939 139.35 157.39 138.641 154.02 137.745C151.941 137.194 149.972 136.584 148.114 135.916C148.204 136.512 148.285 137.133 148.358 137.78C148.802 141.747 148.983 145.772 148.898 149.854C148.132 149.857 147.371 149.828 146.615 149.767C144.2 149.558 141.952 149.006 139.873 148.112C137.271 147.02 134.884 145.382 132.713 143.199C130.715 141.178 129.007 138.808 127.59 136.09C126.301 133.663 125.25 130.945 124.437 127.937C123.841 125.715 123.348 123.253 122.956 120.55C124.387 120.163 125.775 119.878 127.12 119.696C126.58 118.69 126.103 117.644 125.691 116.56C124.979 114.699 124.509 112.858 124.28 111.037C124.187 111.102 124.094 111.166 124.001 111.229C121.156 113.169 118.786 115.677 116.893 118.755C115 121.845 114.106 126.665 114.21 133.216C114.314 139.765 118.362 146.455 126.353 153.286C127.956 154.026 129.124 154.595 129.855 154.993C132.294 156.306 134.321 157.833 135.936 159.575C137.782 161.585 138.932 163.745 139.385 166.057C139.745 167.892 139.664 169.907 139.141 172.102C138.923 173.011 138.569 174.12 138.079 175.43C141.866 185.121 148.434 190.848 157.783 192.608C157.687 191.761 157.711 190.925 157.853 190.099C158.398 186.989 160.099 183.632 162.957 180.029C159.554 177.879 157.144 174.557 155.727 170.064C154.31 165.545 154.148 160.841 155.239 155.952C155.948 152.758 157.313 148.995 159.334 144.662ZM193.516 144.61C193.325 144.263 193.139 143.92 192.958 143.582C191.507 146.834 190.618 151.544 190.293 157.711C190.072 161.881 189.933 164.326 189.875 165.046C189.631 167.81 189.236 170.209 188.69 172.241C187.691 175.935 185.862 179.315 183.202 182.381C183.188 182.397 183.171 182.408 183.15 182.416C183.557 182.398 183.981 182.375 184.422 182.346C188.464 182.149 191.983 182.497 194.979 183.392C198.299 184.384 200.93 186.045 202.872 188.374C203.178 187.311 203.445 186.243 203.673 185.169C204.015 183.534 204.265 181.891 204.422 180.238C204.429 180.184 204.435 180.126 204.44 180.064C204.699 177.239 204.688 174.387 204.405 171.51C204.139 168.856 203.652 166.271 202.941 163.757C202.411 161.884 201.754 160.049 200.973 158.251C200.148 156.346 198.963 154.047 197.418 151.352C195.653 148.356 194.352 146.108 193.516 144.61ZM136.563 206.999C138.003 207.623 139.467 208.204 140.953 208.741C136.949 202.444 130.346 198.861 121.144 197.991C125.817 201.575 130.956 204.578 136.563 206.999ZM76.3519 108.441C75.5617 108.206 74.8299 107.91 74.1565 107.553C73.6164 109.988 73.0937 112.706 72.5884 115.706C72.4693 116.485 72.3473 117.281 72.2227 118.093C72.095 118.906 72.2109 119.446 72.5713 119.713C72.7337 119.853 72.9487 119.911 73.2157 119.888C73.448 119.853 73.657 119.766 73.8429 119.626C74.0869 119.406 74.3307 119.028 74.5747 118.494C74.8671 117.845 75.1401 117.16 75.3936 116.438C75.8223 115.217 76.1941 113.892 76.5086 112.466C76.732 111.425 76.9585 110.153 77.1879 108.65C76.9098 108.594 76.6311 108.524 76.3519 108.441ZM58.285 112.832C58.8773 111.322 59.7076 108.941 60.7762 105.689C61.042 104.884 61.2451 104.222 61.386 103.702C61.2419 103.711 61.091 103.711 60.9332 103.702C60.3524 103.679 59.7775 103.54 59.2084 103.284C58.8029 103.121 58.4196 102.918 58.0585 102.675L55.2883 111.037C55.1142 111.606 55.0096 111.978 54.9747 112.152C54.8933 112.57 54.8819 112.942 54.9397 113.267C55.0005 113.63 55.1282 113.938 55.3232 114.191C55.3593 114.235 55.3943 114.276 55.4278 114.313C55.7179 114.626 56.049 114.783 56.4208 114.783C56.8501 114.783 57.2393 114.562 57.5879 114.121C57.8417 113.811 58.0739 113.381 58.285 112.832Z" fill="white"/>
<path d="M236.692 68.875C236.597 70.5591 236.772 72.1851 237.213 73.7532C237.677 75.4837 238.462 76.5173 239.565 76.8542C240.1 77.0168 240.673 76.9994 241.289 76.802C241.836 76.6044 242.351 76.2851 242.841 75.8437C243.056 75.6515 243.299 75.3957 243.572 75.0773C243.709 74.9209 243.855 74.7467 244.007 74.5546C244.514 73.921 245.25 73.0558 246.221 71.9585C246.109 71.3802 245.923 70.8922 245.662 70.4952C245.373 70.0421 244.866 69.5312 244.147 68.9621C244.07 68.8979 243.995 68.8398 243.921 68.7877C243.809 68.9426 243.692 69.105 243.572 69.2757C243.405 69.5186 243.242 69.7451 243.085 69.9551C240.453 72.1587 238.322 71.7987 236.692 68.875ZM61.4755 25.9293C59.1641 25.1857 56.76 25.2846 54.2628 26.2254C51.8237 27.1313 49.8841 28.6181 48.4437 30.6854C47.0615 32.6599 46.2369 34.9481 45.9697 37.5499C45.7142 40.0353 45.9872 42.4801 46.7886 44.8846C47.5435 47.1378 48.7284 49.2864 50.3429 51.3308C51.0481 52.2319 51.8263 53.0972 52.6775 53.9266C53.4511 53.1731 54.2642 52.4355 55.1166 51.7141C60.048 47.5244 65.629 44.371 71.8593 42.2539C71.4194 39.8497 70.978 37.9391 70.5353 36.5219C69.7221 34.0247 68.5954 31.87 67.1553 30.0582C65.5176 28.0023 63.6244 26.6261 61.4755 25.9293ZM184.18 50.9473C192.016 50.3694 199.682 50.6191 207.178 51.6966C209.62 52.0555 212.042 52.4968 214.442 53.0207C212.737 50.8717 210.838 48.9321 208.745 47.2016C205.435 44.4475 201.649 42.2293 197.386 40.5463C191.236 38.1224 185.051 37.1758 178.832 37.7065C179.801 40.7101 180.359 43.8228 180.504 47.045C180.571 48.5005 180.548 49.9117 180.434 51.2784C181.676 51.1504 182.925 51.0401 184.18 50.9473ZM163.883 140.585C163.426 140.41 162.688 140.171 161.671 139.87C160.983 141.309 160.205 142.906 159.336 144.661C157.315 148.994 155.95 152.757 155.242 155.951C154.15 160.841 154.313 165.545 155.73 170.063C157.146 174.556 159.556 177.878 162.96 180.029C163.032 179.95 163.101 179.868 163.169 179.785C163.668 179.157 164.981 177.624 167.106 175.185C168.744 173.303 170.004 171.741 170.887 170.499C173.605 166.654 175.155 162.513 175.539 158.077C175.957 153.222 174.813 149.185 172.107 145.968C170.213 143.738 167.472 141.944 163.883 140.585ZM132.471 126.716C130.275 124.603 128.492 122.263 127.123 119.695C125.777 119.878 124.389 120.162 122.959 120.549C123.35 123.252 123.844 125.715 124.439 127.936C125.253 130.944 126.304 133.662 127.593 136.09C129.01 138.808 130.717 141.177 132.715 143.198C134.887 145.382 137.274 147.019 139.876 148.111C141.955 149.005 144.202 149.557 146.618 149.766C147.374 149.828 148.134 149.857 148.9 149.853C148.985 145.771 148.805 141.747 148.36 137.78C148.288 137.133 148.206 136.511 148.116 135.915C146.11 135.199 144.235 134.415 142.489 133.563C138.563 131.647 135.224 129.365 132.471 126.716ZM211.533 138.738C211.726 139.984 211.982 141.261 212.299 142.571C212.834 144.708 213.844 147.914 215.331 152.188C216.537 155.66 217.425 158.453 217.997 160.568C218.565 160.43 219.157 160.308 219.774 160.202C221.182 159.975 222.715 159.859 224.373 159.853C225.886 159.853 227.954 159.935 230.574 160.097C230.852 159.649 231.13 159.178 231.411 158.686C233.132 155.655 234.53 153.523 235.609 152.292C236.912 150.817 238.445 149.574 240.209 148.564C241.965 147.554 243.809 146.862 245.751 146.491C247.12 146.212 248.426 146.136 249.669 146.264C250.254 146.328 250.806 146.432 251.325 146.578C251.253 146.084 251.147 145.579 251.013 145.062C250.222 142.135 248.701 139.522 246.447 137.222C242.778 133.494 238.161 131.281 232.596 130.584C228.735 130.1 225.135 130.437 221.796 131.595C220.343 132.106 218.937 132.774 217.579 133.598C215.348 134.947 213.333 136.66 211.533 138.738ZM77.0162 128.285C76.9053 128.267 76.7951 128.25 76.6851 128.232C75.3433 128.432 74.1469 128.856 73.0961 129.504C71.9464 130.213 71.0462 131.182 70.3958 132.413C70.0641 133.042 69.8318 133.675 69.6989 134.313C69.5712 134.959 69.5423 135.609 69.6119 136.264C69.7628 137.518 70.3262 138.778 71.3017 140.045C71.9172 140.857 72.9219 141.903 74.3156 143.181C74.8306 143.659 75.3009 144.083 75.727 144.452C78.5436 143.432 81.4009 143.229 84.2985 143.842C85.6515 144.129 86.9756 144.594 88.271 145.236C88.5758 144.902 88.8487 144.536 89.0899 144.139C89.6936 143.151 90.0247 142.106 90.0829 141.003C90.1195 140.346 90.0617 139.69 89.9087 139.034C89.4402 136.987 88.0637 134.931 85.7795 132.867C82.9572 130.334 80.0361 128.807 77.0162 128.285Z" fill="#F8981C"/>
<path d="M235.558 63.5535C231.946 63.2978 228.635 63.9949 225.628 65.6441C222.027 67.6418 218.786 71.1552 215.906 76.1846C215.069 77.6479 213.914 79.8782 212.439 82.8746C210.94 85.9177 209.79 88.1477 208.989 89.5649C208.791 89.9143 208.576 90.2743 208.344 90.645C207.142 92.6498 205.551 95.0019 203.571 97.701C205.797 100.55 207.353 103.942 208.24 107.876C209.657 114.101 208.977 119.827 206.201 125.054C205.867 125.68 205.426 126.394 204.877 127.197C205.105 129.61 204.954 131.7 204.425 133.469C204.146 134.328 203.71 135.031 203.118 135.577C202.433 136.192 201.747 136.361 201.062 136.082C200.563 135.885 200.115 135.374 199.721 134.549C199.646 134.414 199.571 134.281 199.494 134.148C199.473 134.176 199.45 134.205 199.424 134.235C196.219 138.022 194.064 141.135 192.961 143.574C193.142 143.912 193.327 144.255 193.518 144.602C194.354 146.1 195.655 148.347 197.421 151.344C198.966 154.039 200.15 156.338 200.975 158.243C201.757 160.041 202.413 161.876 202.943 163.748C203.003 162.466 203.09 161.241 203.205 160.072C203.588 156.367 204.285 152.987 205.296 149.933C206.457 146.483 208.037 143.388 210.034 140.647C210.519 139.978 211.019 139.339 211.533 138.73C211.219 136.569 211.103 134.508 211.184 132.545C211.324 128.922 212.148 125.745 213.658 123.016C214.982 120.617 216.91 118.421 219.442 116.43C221.288 114.987 223.454 113.652 225.94 112.423C226.713 112.036 227.632 111.595 228.692 111.098C227.781 110.558 227.04 110.117 226.464 109.774C224.943 108.868 223.6 107.817 222.44 106.621C221.196 105.344 220.215 103.955 219.495 102.457C218.751 100.866 218.345 99.205 218.275 97.4745C218.206 95.6741 218.525 94.0074 219.233 92.4743C220.151 90.4416 221.678 88.8331 223.815 87.6482C225.894 86.4868 228.096 85.9641 230.419 86.0804C232.198 86.1818 233.916 86.6346 235.575 87.4392C238.542 91.9312 240.498 96.6585 241.446 101.621C241.641 102.627 241.787 103.632 241.881 104.635C243.07 103.857 244.115 103.067 245.018 102.266C245.029 102.253 245.041 102.241 245.052 102.231C246.828 100.653 248.32 98.8527 249.532 96.8297C250.465 95.2891 251.23 93.6168 251.831 91.8124C253.115 87.9521 253.432 84.1136 252.788 80.296C252.433 80.5558 252.081 80.7532 251.725 80.8886C250.402 81.4113 249.013 81.3008 247.561 80.5575C246.203 79.8607 245.164 78.827 244.442 77.4563C244.075 76.7471 243.783 75.9515 243.571 75.0696C243.299 75.3881 243.056 75.6439 242.841 75.836C242.351 76.2774 241.836 76.5967 241.289 76.7944C240.673 76.9917 240.1 77.0092 239.564 76.8465C238.462 76.5097 237.677 75.476 237.213 73.7455C236.772 72.1774 236.597 70.5514 236.692 68.8673C238.321 71.791 240.452 72.1511 243.084 69.9474C243.242 69.7375 243.405 69.5109 243.571 69.268C243.692 69.0973 243.809 68.9349 243.921 68.78C244.439 68.066 244.874 67.5143 245.227 67.1251C245.187 67.0979 245.147 67.0687 245.106 67.0378C242.366 64.9704 239.181 63.809 235.558 63.5535ZM167.576 20.6949C167.418 20.871 167.256 21.0452 167.089 21.2176C165.172 23.2036 162.896 24.7367 160.259 25.8171C157.623 26.8857 154.922 27.3849 152.158 27.3153C151.031 27.2803 149.423 27.1005 147.332 26.7751C145.125 26.4383 143.511 26.241 142.489 26.1828C140.688 26.09 139.056 26.2584 137.593 26.688C135.897 27.1876 134.538 28.0064 133.516 29.1446C132.633 30.1436 131.878 31.6882 131.251 33.779C130.45 36.4387 129.881 38.1053 129.544 38.7792C128.905 40.0684 128.11 40.8348 127.157 41.0788C126.483 41.2761 125.804 41.1716 125.119 40.7652C124.468 40.382 123.969 39.8475 123.62 39.1624C123.121 38.1984 122.906 36.7755 122.976 34.894C123.208 28.32 124.689 21.9551 127.418 15.7992C128.656 13.0019 130.097 10.3654 131.739 7.8894C128.604 7.90057 125.433 8.16178 122.227 8.6736C117.406 9.45178 113.057 10.712 109.177 12.4542C104.764 14.4402 101.088 16.9838 98.1491 20.0851C94.5833 23.8365 92.1559 28.3375 90.8665 33.5871C90.3819 35.5648 90.0918 37.5219 89.9955 39.4586C91.1423 39.4961 92.2923 39.5714 93.4451 39.6851C98.5323 40.1611 102.551 41.468 105.501 43.605C107.689 45.1914 109.548 47.3807 111.076 50.1732C111.083 50.1879 111.089 50.1993 111.094 50.2079C112.337 52.496 113.376 55.2487 114.212 58.4663C114.619 59.9877 115.258 62.9146 116.129 67.2468C116.872 70.9404 117.586 73.8501 118.272 75.9755C119.247 79.0882 120.496 81.8177 122.018 84.1637C123.771 86.8818 125.833 88.9841 128.202 90.4708C129.223 91.1161 130.408 91.6912 131.756 92.1956C135.651 88.4774 141.029 85.1149 147.889 82.1082C149.608 81.3532 152.216 80.215 155.712 78.6933C158.778 77.3228 161.339 76.0626 163.395 74.9126C169.028 71.7885 173.221 68.2052 175.974 64.1633C176.708 63.0884 177.352 61.9734 177.908 60.818C179.313 57.8989 180.155 54.7163 180.434 51.2708C175.025 51.8594 169.758 52.8349 164.632 54.1976C157.903 55.9857 151.416 58.4422 145.172 61.5673C147.023 57.5045 149.537 53.817 152.715 50.5043C153.804 49.3807 154.965 48.3004 156.2 47.2636C162.065 42.339 168.616 39.2784 175.852 38.0821C176.846 37.9208 177.839 37.7931 178.831 37.6989C178.125 35.5239 177.202 33.4044 176.061 31.3399C175.756 30.7969 175.436 30.2567 175.103 29.7194C173.791 27.5931 172.31 25.6129 170.66 23.7787C169.692 22.7006 168.664 21.6727 167.576 20.6949ZM139.161 94.077C136.304 93.6128 133.836 92.9855 131.756 92.1956C127.803 95.9863 125.381 100.144 124.491 104.67C124.082 106.761 124.012 108.88 124.282 111.029C127.221 109.104 130.34 108 133.638 107.719C135.171 107.591 137.064 107.614 139.318 107.788C140.584 107.881 142.483 108.038 145.015 108.259C149.579 108.549 153.163 108.009 155.764 106.638C157.521 105.726 159.356 104.152 161.27 101.917C161.086 101.748 160.894 101.579 160.695 101.412C157.814 98.9844 154.504 97.2422 150.764 96.1853C149.219 95.7322 147.303 95.3258 145.015 94.9658C142.401 94.5823 140.45 94.2861 139.161 94.077ZM135.345 182.408C133.161 181.482 130.432 180.599 127.157 179.759C124.288 179.028 122.232 178.459 120.99 178.052C118.748 177.32 116.826 176.467 115.223 175.491C112.424 173.795 109.741 171.223 107.174 167.773C106.337 166.646 104.259 163.458 100.936 158.208C99.4569 155.886 97.9993 153.865 96.5635 152.145C96.5796 152.519 96.5971 152.89 96.616 153.26C96.8829 158.278 97.7252 163.063 99.1421 167.616C101.837 176.281 106.622 184.144 113.498 191.206C115.89 193.662 118.44 195.921 121.146 197.983C130.348 198.853 136.951 202.436 140.955 208.733C143.862 209.801 146.852 210.707 149.928 211.45V211.102C149.932 209.801 149.897 208.547 149.823 207.339C148.853 206.886 147.889 206.404 146.931 205.893C143.331 203.988 140.433 201.822 138.238 199.394C135.578 196.456 134.149 193.337 133.952 190.038C133.835 188.227 134.12 186.2 134.805 183.958C134.931 183.552 135.111 183.035 135.345 182.408ZM150.904 227.932C145.446 224.65 140.185 222.113 135.119 220.318C125.281 216.811 115.002 215.608 104.282 216.712C99.0247 217.253 93.9838 218.316 89.1592 219.9C101.791 226.579 115.798 229.918 131.182 229.918C138.027 229.918 144.601 229.256 150.904 227.932ZM208.919 166.884C207.25 169.337 205.757 173.728 204.442 180.056C204.437 180.117 204.431 180.175 204.425 180.23C204.267 181.882 204.018 183.526 203.675 185.16C203.447 186.234 203.18 187.303 202.874 188.366C200.932 186.036 198.301 184.376 194.982 183.383C191.985 182.489 188.466 182.14 184.424 182.338C183.983 182.367 183.559 182.39 183.152 182.408C180.613 185.333 177.569 187.702 174.023 189.516C170.434 191.339 166.723 192.402 162.89 192.704C161.142 192.835 159.44 192.8 157.785 192.6C158.194 196.171 160.726 199.929 165.381 203.872C166.584 204.884 167.99 205.796 169.597 206.607C171.023 205.106 172.544 203.701 174.162 202.391C174.387 202.209 174.613 202.029 174.842 201.851C179.871 197.937 185.556 195.155 191.898 193.505C195.16 192.663 198.412 192.164 201.654 192.007C202.782 191.963 203.908 191.957 205.034 191.99C205.083 191.991 205.129 191.991 205.173 191.99C207.06 192.055 208.942 192.234 210.818 192.53C211.906 192.697 213.021 192.906 214.163 193.157C216.09 190.193 217.478 187.423 218.327 184.847C218.723 183.642 219.001 182.48 219.164 181.362C219.708 177.555 219.848 173.786 219.582 170.055C219.44 168.05 219.178 166.053 218.798 164.062C218.653 163.301 218.491 162.54 218.31 161.78C218.219 161.404 218.115 160.997 217.996 160.56C217.048 160.804 216.166 161.106 215.348 161.466C212.747 162.593 210.604 164.399 208.919 166.884ZM72.1028 43.5875C72.0232 43.1235 71.9419 42.6761 71.8591 42.2462C65.6288 44.3634 60.0478 47.5168 55.1163 51.7064C54.2639 52.4279 53.4508 53.1654 52.6772 53.9189C53.5917 54.8194 54.5905 55.6789 55.6737 56.4975C59.9827 59.7497 64.9016 61.8402 70.4305 62.7694C73.6913 63.3176 76.8853 63.4161 80.0127 63.0655C79.2792 62.2432 78.5823 61.3548 77.9219 60.4002C75.9241 57.5312 74.4491 54.3022 73.4968 50.7134C73.1482 49.3544 72.6837 46.9792 72.1028 43.5875ZM72.5734 119.705C72.2131 119.438 72.0971 118.898 72.2248 118.085C72.3494 117.273 72.4714 116.477 72.5906 115.698C68.4327 114.731 64.1179 114.209 59.6459 114.13C58.9571 114.117 58.2717 114.111 57.59 114.113C57.2415 114.554 56.8522 114.775 56.4229 114.775C56.0512 114.775 55.7201 114.618 55.4299 114.304C55.3964 114.268 55.3615 114.227 55.3254 114.182C51.0937 114.39 46.9879 115.017 43.0077 116.064C42.5801 117.799 42.1966 119.553 41.858 121.326C40.8126 127.005 40.2899 132.899 40.2899 139.009C40.2899 140.655 40.3249 142.287 40.3945 143.905C42.9163 142.074 45.6458 140.465 48.583 139.079C48.8485 138.953 49.1157 138.831 49.3843 138.713C55.9678 135.726 62.7394 134.257 69.6987 134.305C69.8316 133.667 70.0639 133.034 70.3955 132.406C71.046 131.175 71.9462 130.205 73.0958 129.496C74.1467 128.848 75.343 128.424 76.6848 128.224C76.7948 128.242 76.9051 128.259 77.0159 128.277C80.0359 128.8 82.957 130.327 85.7793 132.859C88.0634 134.924 89.4399 136.979 89.9085 139.027C91.4204 139.749 92.9129 140.556 94.386 141.448C95.244 141.969 96.0804 142.509 96.8946 143.068C97.045 141.617 97.2423 140.16 97.4869 138.695C98.2637 134.749 98.7924 131.683 99.0725 129.496C95.0805 126.134 91.085 123.376 87.0859 121.221C83.3376 119.189 79.4413 117.592 75.3957 116.43C75.1422 117.151 74.8693 117.836 74.5768 118.486C74.3328 119.02 74.0891 119.397 73.8451 119.618C73.6592 119.757 73.4501 119.845 73.2178 119.88C72.9509 119.903 72.7358 119.845 72.5734 119.705Z" fill="#0899A0"/>
<path d="M111.085 50.2244C111.081 50.2158 111.075 50.2044 111.068 50.1898C109.54 47.3973 107.681 45.2079 105.493 43.6215C102.543 41.4846 98.5239 40.1777 93.4367 39.7016C92.2839 39.5879 91.1339 39.5126 89.9871 39.4751C89.8199 42.6995 90.1856 45.8704 91.0847 48.9877C91.6853 51.0808 92.6084 53.3632 93.8549 55.8344C94.3538 56.8122 94.8997 57.8169 95.4926 58.8486C96.7121 60.9626 98.6402 64.0928 101.277 68.2392C103.53 71.9327 105.144 75.0919 106.12 77.7168C107.432 81.2477 107.967 84.6334 107.723 87.8738C107.572 89.767 107.107 91.9566 106.329 94.4421C105.876 95.8822 105.15 98.0194 104.151 100.853C101.155 110.203 100.487 118.885 102.148 126.9C102.705 129.593 103.53 132.149 104.622 134.565C105.336 136.141 106.16 137.657 107.096 139.113C109.593 142.992 112.659 146.081 116.295 148.381C117.862 149.38 120.098 150.518 123.002 151.796C124.278 152.36 125.394 152.859 126.347 153.294C118.355 146.463 114.308 139.773 114.204 133.224C114.1 126.674 114.994 121.853 116.887 118.763C118.78 115.686 121.15 113.177 123.995 111.237C124.088 111.174 124.181 111.11 124.274 111.045C124.004 108.897 124.074 106.777 124.483 104.686C125.373 100.161 127.795 96.0028 131.748 92.2121C130.4 91.7078 129.215 91.1326 128.194 90.4874C125.824 89.0006 123.763 86.8983 122.009 84.1803C120.487 81.8343 119.239 79.1048 118.263 75.992C117.578 73.8666 116.864 70.9569 116.12 67.2634C115.249 62.9311 114.611 60.0042 114.204 58.4828C113.368 55.2653 112.328 52.5126 111.085 50.2244ZM182.638 65.9742C181.082 67.31 179.787 68.7733 178.753 70.3646C177.627 72.1069 176.889 73.9073 176.541 75.7655C176.146 77.6819 176.14 80.0396 176.523 82.839C176.734 84.3475 177.076 86.5836 177.551 89.5465C179.047 89.167 180.615 88.9115 182.255 88.7798C186.94 88.4129 191.185 89.1215 194.991 90.9055C196.923 86.7259 198.102 82.4168 198.527 77.978C198.625 76.9782 198.682 75.9677 198.702 74.9466C198.748 72.3102 198.382 69.9871 197.604 67.9777C196.663 65.5735 195.217 63.959 193.266 63.1344C191.593 62.4376 189.746 62.4084 187.725 63.0474C186.452 63.4521 185.209 64.0736 183.997 64.9113C183.54 65.2384 183.087 65.5927 182.638 65.9742ZM99.1686 128.764C99.61 124.954 99.4124 121.69 98.5763 118.972C97.1592 114.315 93.8548 110.436 88.6631 107.334C88.1716 107.038 87.6606 106.748 87.1299 106.463C86.1495 107.202 85.0866 107.789 83.9416 108.223C81.7623 109.053 79.5088 109.199 77.1817 108.658C76.9523 110.162 76.7257 111.434 76.5023 112.474C76.1878 113.901 75.8161 115.225 75.3873 116.446C79.4329 117.608 83.3292 119.205 87.0775 121.237C91.0766 123.392 95.0721 126.151 99.0641 129.513C99.1059 129.253 99.1409 129.003 99.1686 128.764ZM138.072 175.438C137.793 176.234 137.462 177.1 137.079 178.034C136.329 179.845 135.749 181.309 135.337 182.424C136.776 183.032 137.978 183.659 138.944 184.306C141.615 186.095 143.839 188.539 145.616 191.641C147.242 194.451 148.404 197.611 149.101 201.118C149.464 203.032 149.702 205.111 149.815 207.355C149.888 208.564 149.923 209.818 149.919 211.119V211.467C154.459 212.58 159.181 213.346 164.084 213.767C164.432 213.216 164.786 212.676 165.146 212.147C166.506 210.181 167.987 208.34 169.589 206.624C167.981 205.813 166.576 204.901 165.373 203.888C160.718 199.945 158.186 196.188 157.777 192.616C148.427 190.856 141.859 185.13 138.072 175.438ZM230.566 160.106C229.251 162.309 228.094 163.947 227.1 165.019C225.336 166.924 222.964 168.55 219.992 169.898C219.857 169.959 219.718 170.017 219.573 170.072C219.839 173.803 219.7 177.572 219.155 181.379C218.993 182.497 218.714 183.658 218.319 184.863C219.005 184.749 219.719 184.633 220.462 184.515C225.364 183.748 228.942 183.115 231.193 182.616C239.628 180.792 246.149 177.773 250.76 173.556C253.547 170.989 255.578 167.987 256.858 164.549C258.227 160.902 258.488 157.371 257.64 153.956C257.282 152.574 256.764 151.337 256.091 150.245C255.312 149.026 254.389 148.097 253.321 147.458C252.711 147.089 252.041 146.799 251.316 146.587C251.731 149.187 251.353 151.539 250.185 153.643C248.778 156.128 246.438 157.94 243.162 159.078C240.47 160.008 237.339 160.42 233.773 160.315C232.631 160.233 231.562 160.163 230.566 160.106ZM54.9859 95.3655C53.9794 94.8385 53.0329 94.2752 52.1461 93.6754C48.0255 100.702 44.9767 108.17 42.9993 116.081C46.9795 115.034 51.0852 114.407 55.317 114.199C55.1219 113.946 54.9942 113.639 54.9335 113.275C54.8756 112.95 54.8871 112.579 54.9684 112.16C55.0034 111.986 55.1079 111.615 55.282 111.045L58.0522 102.683C58.4134 102.926 58.7966 103.13 59.2022 103.293C59.7713 103.548 60.3461 103.688 60.9269 103.711C61.0847 103.72 61.2357 103.72 61.3797 103.711C61.2388 104.23 61.0358 104.892 60.77 105.697C59.7014 108.949 58.8711 111.33 58.2788 112.84C58.0677 113.389 57.8354 113.819 57.5816 114.129C58.2633 114.128 58.9487 114.134 59.6375 114.147C64.1095 114.225 68.4243 114.748 72.5822 115.715C73.0874 112.714 73.6101 109.997 74.1503 107.561C72.5378 106.715 71.2718 105.525 70.3522 103.989C69.7003 102.885 69.2589 101.66 69.0281 100.313C67.9543 100.031 66.9379 99.7522 65.9792 99.4773C62.3493 98.4324 59.5502 97.4801 57.5816 96.62C56.6746 96.2245 55.8093 95.8066 54.9859 95.3655Z" fill="#2C3079"/>
<path d="M235.597 152.309C234.517 153.54 233.12 155.671 231.398 158.703C231.118 159.195 230.84 159.666 230.562 160.114C231.559 160.171 232.627 160.241 233.77 160.323C237.336 160.428 240.466 160.015 243.159 159.086C246.435 157.948 248.775 156.136 250.181 153.65C251.35 151.546 251.728 149.194 251.313 146.595C250.794 146.449 250.242 146.345 249.657 146.281C248.414 146.153 247.108 146.229 245.739 146.507C243.797 146.879 241.953 147.57 240.197 148.581C238.433 149.591 236.9 150.834 235.597 152.309Z" fill="#BF792A"/>
<path d="M234.64 42.3923C234.001 40.6154 232.735 39.0066 230.842 37.5665C229.367 36.463 227.751 35.6905 225.999 35.2492C224.163 34.7731 222.378 34.715 220.649 35.075C218.373 35.5628 216.259 36.7477 214.307 38.6291C212.647 40.2436 211.177 42.282 209.9 44.7443C209.482 45.5517 209.092 46.3705 208.732 47.2008C210.824 48.9313 212.724 50.8709 214.429 53.0199C212.029 52.496 209.607 52.0547 207.164 51.6958C206.46 54.246 206.03 56.8882 205.875 59.6228C205.712 62.3881 205.84 65.0887 206.258 67.7243C207.488 66.7184 208.911 65.7832 210.527 64.9191C212.222 64.0132 215.033 62.7937 218.959 61.2605C222.444 59.8551 225.191 58.5021 227.199 57.2012C230.046 55.3662 232.148 53.2639 233.505 50.8944C234.273 49.5818 234.766 48.1998 234.986 46.7477C235.221 45.1914 235.104 43.7396 234.64 42.3923ZM257.601 69.2921C257.386 69.4399 257.195 69.5791 257.026 69.7102C256.12 70.4071 255.539 71.1621 255.284 71.9752C255.144 72.4515 255.115 72.9275 255.198 73.4038C255.278 73.9148 255.465 74.3389 255.754 74.6758C256.023 74.9659 256.387 75.2099 256.854 75.4073C256.871 75.4144 256.888 75.4201 256.905 75.4247C257.232 75.0315 257.49 74.7528 257.67 74.5884C257.996 74.3097 258.495 73.8741 259.171 73.2818C259.681 72.7476 259.935 72.2075 259.935 71.6616C259.935 71.1157 259.692 70.6162 259.205 70.1633C258.776 69.7684 258.251 69.484 257.636 69.3096L257.601 69.2921ZM182.251 88.7701C180.611 88.9018 179.043 89.1573 177.547 89.5368C173.24 90.62 169.535 92.7223 166.431 95.8436C165.723 96.5636 164.875 97.522 163.888 98.7183C162.819 100.066 162.006 101.064 161.448 101.715C161.388 101.786 161.324 101.856 161.257 101.924C159.344 104.159 157.508 105.733 155.751 106.645C153.15 108.016 149.566 108.556 145.002 108.266C142.47 108.045 140.571 107.888 139.305 107.795C137.052 107.621 135.158 107.598 133.625 107.726C130.327 108.007 127.208 109.11 124.27 111.036C124.498 112.857 124.968 114.698 125.681 116.559C126.093 117.643 126.569 118.688 127.109 119.695C129.556 119.385 131.873 119.42 134.061 119.799C136.163 120.182 138.103 120.879 139.88 121.89C141.773 122.958 143.318 124.294 144.514 125.897C145.664 127.419 146.558 129.288 147.197 131.507C147.559 132.755 147.861 134.224 148.103 135.915C149.961 136.583 151.93 137.192 154.009 137.744C157.379 138.64 159.928 139.348 161.658 139.869C162.675 140.17 163.413 140.409 163.87 140.584C167.459 141.943 170.2 143.737 172.094 145.967C174.8 149.185 175.944 153.221 175.526 158.076C175.142 162.513 173.592 166.653 170.874 170.498C169.991 171.74 168.731 173.303 167.093 175.184C164.968 177.623 163.655 179.157 163.156 179.784C163.088 179.867 163.019 179.949 162.947 180.028C160.089 183.631 158.387 186.987 157.842 190.098C157.7 190.923 157.677 191.76 157.772 192.606C159.428 192.807 161.129 192.842 162.877 192.711C166.71 192.409 170.421 191.346 174.01 189.523C177.557 187.709 180.6 185.34 183.139 182.414C183.16 182.407 183.178 182.395 183.191 182.38C185.851 179.313 187.68 175.934 188.679 172.24C189.225 170.207 189.62 167.809 189.864 165.044C189.922 164.324 190.062 161.88 190.282 157.71C190.607 151.542 191.496 146.833 192.948 143.58C190.301 138.56 188.821 134.146 188.505 130.34C188.147 125.823 189.146 120.998 191.502 115.862C191.381 115.842 191.253 115.825 191.118 115.809C189.887 115.682 189.016 115.455 188.505 115.13C188.168 114.921 187.913 114.648 187.738 114.311C187.541 113.951 187.506 113.603 187.634 113.266C187.82 112.778 188.331 112.412 189.167 112.168C190.8 111.617 192.443 111.222 194.098 110.984C194.573 110.197 195.078 109.401 195.613 108.597C196.624 107.075 198.906 103.939 202.46 99.1886C202.838 98.6845 203.204 98.1907 203.558 97.7079C202.254 96.0412 200.721 94.5605 198.958 93.265C197.695 92.3376 196.371 91.5477 194.986 90.8958C191.181 89.1118 186.935 88.4032 182.251 88.7701ZM121.133 197.99C118.427 195.928 115.877 193.669 113.485 191.213C106.609 184.151 101.824 176.288 99.1292 167.623C97.7124 163.07 96.87 158.285 96.6031 153.267C96.5842 152.897 96.5667 152.525 96.5507 152.152C95.6367 151.054 94.7308 150.078 93.8329 149.225C92.0343 147.509 90.176 146.18 88.2579 145.236C87.8237 145.721 87.3242 146.139 86.7594 146.49C85.8303 147.059 84.7963 147.407 83.6581 147.535C82.5317 147.663 81.4341 147.564 80.3655 147.239C79.3201 146.925 78.2401 146.368 77.1251 145.566C76.7241 145.282 76.2535 144.91 75.7139 144.451C74.3225 144.953 72.9403 145.656 71.5673 146.56C68.1289 148.826 65.6199 151.729 64.0409 155.271C65.1296 155.248 66.291 155.318 67.5254 155.48C68.7218 155.631 70.4001 155.944 72.5605 156.421C73.9193 156.676 74.6336 157.199 74.7035 157.989C74.7149 158.267 74.6279 158.54 74.442 158.808C74.2561 159.051 74.0238 159.231 73.7451 159.347C73.2224 159.545 72.6244 159.574 71.9508 159.434C71.8926 159.423 71.3699 159.324 70.3827 159.138C69.7554 159.022 69.2327 158.976 68.8145 158.999C68.2454 158.999 67.7227 159.127 67.2467 159.382C66.7472 159.65 66.3987 160.015 66.2013 160.48C66.0154 161.038 66.0444 161.717 66.2884 162.518C66.4975 163.262 66.8807 164.383 67.4383 165.881C67.8565 167.217 67.955 168.349 67.7345 169.278C67.6299 169.87 67.3802 170.26 66.9852 170.445C66.7647 170.573 66.5092 170.602 66.2188 170.533C65.9516 170.463 65.7018 170.335 65.4695 170.149C65.2954 169.975 65.1327 169.754 64.9818 169.487C64.9586 169.429 64.8423 169.185 64.6332 168.755C63.9083 167.09 63.0895 165.371 62.1767 163.599C62.0993 165.794 62.3141 168.058 62.8214 170.393C63.3272 172.703 64.0822 174.933 65.0863 177.083C65.7981 178.604 66.6341 180.085 67.595 181.526C67.8634 181.929 68.1421 182.33 68.4313 182.728C70.6247 185.741 73.1915 188.378 76.1321 190.638C75.905 189.611 75.7598 188.571 75.6965 187.519C75.5919 185.243 75.9694 183.471 76.8289 182.205C77.514 181.195 78.5652 180.394 79.9823 179.801C80.6926 179.498 81.61 179.214 82.7347 178.947C83.0375 179.37 83.2173 179.631 83.2749 179.731C83.6352 180.394 83.7744 181.09 83.6931 181.822C83.6 182.624 83.2457 183.146 82.6305 183.39C82.4097 183.495 81.8927 183.582 81.0799 183.651C80.4526 183.71 80.0405 183.896 79.8428 184.209C79.6919 184.418 79.6163 184.784 79.6163 185.307C79.6862 186.712 80.2785 188.774 81.3935 191.491C81.8726 192.659 82.2501 193.71 82.5259 194.645C87.2283 197.04 92.1706 198.428 97.3521 198.809C99.5242 198.96 102.091 198.942 105.053 198.757C106.772 198.652 109.35 198.455 112.788 198.164C115.878 197.933 118.66 197.874 121.133 197.99ZM210.806 192.537C208.929 192.241 207.047 192.061 205.161 191.997C205.116 191.998 205.07 191.998 205.021 191.997C203.896 191.964 202.769 191.969 201.641 192.014C198.399 192.171 195.147 192.67 191.885 193.512C185.543 195.162 179.858 197.943 174.829 201.858C174.6 202.036 174.374 202.216 174.149 202.398C181.889 198.774 187.534 197.438 191.083 198.391C193.925 199.15 196.149 199.98 197.756 200.882C198.169 201.118 198.541 201.356 198.871 201.596C199.833 202.296 201.087 203.307 202.634 204.628C203.708 205.555 204.921 206.629 206.276 207.851C208.692 210.011 210.782 211.626 212.548 212.694C215.196 214.309 218.053 215.418 221.12 216.022C224.208 216.626 227.276 216.678 230.318 216.179C232.294 215.865 234.035 215.319 235.545 214.541C237.312 213.612 238.635 212.416 239.517 210.952C240.482 209.326 240.732 207.549 240.268 205.621C239.778 203.612 237.73 201.922 234.115 200.551C229.181 198.333 225.377 196.736 222.705 195.76C219.693 194.645 216.842 193.779 214.151 193.164C213.008 192.913 211.893 192.704 210.806 192.537ZM241.869 111.262C242.101 109.064 242.101 106.857 241.869 104.642C240.17 105.765 238.18 106.863 235.894 107.935C233.013 109.165 230.61 110.223 228.679 111.105C229.421 111.542 230.269 112.042 231.226 112.604C232.944 113.823 234.007 115.176 234.413 116.663C234.516 117.035 234.617 117.662 234.708 118.545C234.803 119.358 234.923 119.979 235.075 120.409C235.273 121.048 235.651 121.565 236.206 121.959C236.799 122.378 237.381 122.482 237.95 122.273C238.263 122.146 238.546 121.907 238.804 121.559C238.953 121.338 239.145 120.995 239.377 120.531C240.703 117.662 241.534 114.572 241.869 111.262Z" fill="#ED3F7A"/>
<path d="M175.763 22.5342C173.86 22.7708 172.158 23.1889 170.658 23.7887C172.307 25.6228 173.788 27.6031 175.1 29.7294C175.434 30.2667 175.753 30.8069 176.059 31.3499C177.999 29.7263 180.107 28.2744 182.383 26.9942C184.459 25.8348 186.59 24.865 188.777 24.0848C187.978 23.7944 187.159 23.5389 186.32 23.3181C182.824 22.389 179.305 22.1278 175.763 22.5342ZM245.015 102.276C245.468 103.495 245.7 104.122 245.711 104.157C246.376 105.69 247.246 106.666 248.326 107.084C248.581 107.177 248.83 107.212 249.074 107.189C249.354 107.154 249.569 107.043 249.721 106.858C249.801 106.718 249.841 106.474 249.841 106.126C249.936 103.605 249.953 101.689 249.893 100.377C249.838 99.1167 249.718 97.9378 249.529 96.8397C248.317 98.8627 246.825 100.663 245.05 102.241C245.038 102.251 245.027 102.263 245.015 102.276ZM257.036 69.7134C257.205 69.5822 257.397 69.443 257.612 69.2952C257.471 69.2715 256.91 69.1669 255.922 68.9816C255.226 68.8539 254.667 68.674 254.249 68.4417C253.774 68.2094 253.135 67.6867 252.333 66.8736C252.055 66.5929 251.795 66.3492 251.548 66.1418C251.104 65.7615 250.709 65.5003 250.365 65.3579C249.54 65.0328 248.638 65.056 247.664 65.4275C247.627 65.4407 247.593 65.4524 247.558 65.4625C246.719 65.7947 245.969 66.3231 245.313 67.0477C245.284 67.0778 245.256 67.1067 245.224 67.1351C244.872 67.5243 244.437 68.076 243.918 68.79C243.993 68.8421 244.067 68.9003 244.144 68.9644C244.863 69.5335 245.37 70.0445 245.66 70.4976C245.92 70.8945 246.106 71.3826 246.218 71.9608C245.247 73.0581 244.511 73.9234 244.004 74.5569C243.852 74.7491 243.706 74.9232 243.569 75.0796C243.781 75.9615 244.073 76.7571 244.439 77.4663C245.161 78.837 246.201 79.8707 247.558 80.5675C249.011 81.3108 250.4 81.4213 251.723 80.8986C252.078 80.7632 252.43 80.5658 252.785 80.306C253.481 79.8005 254.183 79.063 254.893 78.0935C255.741 76.9301 256.414 76.0417 256.916 75.4279C256.898 75.4233 256.881 75.4176 256.864 75.4104C256.397 75.2131 256.033 74.969 255.764 74.6789C255.475 74.3421 255.289 73.9179 255.209 73.4069C255.126 72.9306 255.154 72.4546 255.294 71.9783C255.549 71.1652 256.131 70.4102 257.036 69.7134ZM223.812 87.6582C221.675 88.8431 220.148 90.4516 219.231 92.4843C218.522 94.0174 218.203 95.6841 218.273 97.4845C218.342 99.215 218.749 100.876 219.492 102.467C220.212 103.965 221.194 105.354 222.437 106.631C223.597 107.827 224.941 108.878 226.461 109.784C227.037 110.127 227.779 110.568 228.69 111.108C230.62 110.226 233.023 109.169 235.904 107.938C238.19 106.866 240.181 105.769 241.879 104.645C241.784 103.642 241.638 102.637 241.444 101.631C240.496 96.6685 238.539 91.9412 235.572 87.4492C233.914 86.6446 232.195 86.1918 230.417 86.0904C228.094 85.9741 225.891 86.4968 223.812 87.6582ZM152.713 50.5143C149.535 53.827 147.02 57.5145 145.169 61.5773C151.413 58.4522 157.9 55.9957 164.63 54.2076C169.756 52.8449 175.023 51.8693 180.432 51.2808C180.545 49.914 180.568 48.5029 180.501 47.0473C180.356 43.8252 179.799 40.7125 178.829 37.7089C177.837 37.8031 176.844 37.9308 175.85 38.0921C168.614 39.2884 162.063 42.349 156.197 47.2736C154.963 48.3104 153.802 49.3907 152.713 50.5143ZM200.502 110.865C202.709 111.213 204.021 111.381 204.439 111.37C205.171 111.358 205.787 111.498 206.286 111.788C206.855 112.125 207.192 112.653 207.296 113.373C207.401 114.117 207.18 114.634 206.635 114.924C206.333 115.098 205.769 115.162 204.945 115.116C204.19 115.081 203.667 115.203 203.377 115.482C203.005 115.853 202.9 116.509 203.063 117.45C203.353 119.239 203.888 121.928 204.666 125.517C204.757 126.1 204.826 126.663 204.875 127.207C205.424 126.404 205.865 125.69 206.199 125.064C208.975 119.837 209.654 114.111 208.237 107.885C207.351 103.952 205.795 100.56 203.568 97.711C203.215 98.1939 202.849 98.6877 202.471 99.1917C198.917 103.942 196.634 107.078 195.624 108.6C195.089 109.404 194.583 110.2 194.108 110.987C196.221 110.69 198.352 110.65 200.502 110.865ZM195.746 121.666C195.595 120.284 195.438 119.32 195.275 118.774C194.962 117.706 194.451 116.945 193.742 116.492C193.297 116.212 192.553 116.003 191.512 115.865C189.156 121.001 188.157 125.827 188.516 130.343C188.831 134.149 190.312 138.563 192.958 143.584C194.062 141.144 196.216 138.032 199.422 134.245C199.447 134.215 199.471 134.186 199.491 134.158C197.376 130.188 196.128 126.025 195.746 121.666ZM205.293 149.943C204.283 152.997 203.586 156.377 203.202 160.082C203.087 161.251 203 162.476 202.941 163.758C203.651 166.273 204.139 168.857 204.405 171.511C204.687 174.389 204.699 177.24 204.439 180.066C205.754 173.738 207.247 169.347 208.917 166.894C210.601 164.409 212.744 162.603 215.346 161.476C216.163 161.116 217.046 160.814 217.994 160.57C217.422 158.456 216.534 155.662 215.328 152.19C213.842 147.916 212.831 144.71 212.297 142.573C211.979 141.264 211.724 139.986 211.53 138.74C211.016 139.349 210.517 139.988 210.032 140.657C208.034 143.398 206.454 146.493 205.293 149.943ZM133.949 190.048C134.147 193.347 135.575 196.466 138.235 199.404C140.43 201.832 143.328 203.998 146.929 205.903C147.887 206.414 148.851 206.896 149.821 207.349C149.708 205.104 149.47 203.025 149.106 201.112C148.41 197.604 147.248 194.445 145.622 191.634C143.845 188.533 141.621 186.088 138.949 184.299C137.984 183.653 136.782 183.026 135.343 182.418C135.109 183.045 134.928 183.562 134.803 183.968C134.118 186.21 133.833 188.237 133.949 190.048ZM174.159 202.401C172.542 203.711 171.02 205.116 169.595 206.617C167.992 208.333 166.512 210.174 165.152 212.14C164.792 212.669 164.437 213.209 164.09 213.76C170.752 214.986 176.757 215.23 182.104 214.492C184.917 214.1 187.548 213.438 189.996 212.506C194.9 210.641 199.116 208.016 202.645 204.631C201.097 203.31 199.843 202.299 198.882 201.599C198.551 201.359 198.18 201.121 197.767 200.885C196.159 199.984 193.935 199.153 191.094 198.394C187.544 197.441 181.899 198.777 174.159 202.401Z" fill="#0B589C"/>
<path d="M106.123 77.7103C105.147 75.0854 103.533 71.9262 101.279 68.2327C98.6431 64.0863 96.7149 60.9561 95.4954 58.8421C94.9025 57.8104 94.3566 56.8057 93.8577 55.8279C92.6112 53.3567 91.6881 51.0743 91.0875 48.9812C90.1885 45.8639 89.8227 42.693 89.99 39.4686C84.3133 39.3022 78.6744 40.0979 73.0731 41.8553C72.6652 41.9836 72.2588 42.1171 71.8535 42.2563C71.9363 42.6862 72.0176 43.1335 72.0973 43.5975C72.6781 46.9892 73.1427 49.3644 73.4912 50.7234C74.4435 54.3122 75.9186 57.5412 77.9163 60.4102C78.5768 61.3648 79.2736 62.2532 80.0071 63.0755C76.8798 63.4261 73.6857 63.3276 70.4249 62.7794C64.896 61.8503 59.9772 59.7597 55.6681 56.5075C54.5849 55.689 53.5862 54.8295 52.6717 53.929C51.04 55.5292 49.5824 57.2075 48.2987 58.9641C46.2429 61.7749 44.7097 64.69 43.6992 67.71C43.3839 68.656 43.1224 69.6026 42.915 70.5497C44.5493 70.422 46.5937 70.3581 49.0477 70.3581C50.6622 70.3581 51.9167 70.4163 52.8109 70.5323C54.1813 70.7067 55.3545 71.055 56.3303 71.5777C57.0853 71.9958 57.4742 72.4489 57.4974 72.9367C57.5441 73.5058 57.2362 73.924 56.574 74.1909C55.9935 74.4349 55.3719 74.4813 54.71 74.3304C53.7806 74.1213 53.1594 74.011 52.8458 73.9993C52.1372 73.9646 51.6145 74.1445 51.2777 74.5395C51.0222 74.8531 50.8887 75.2538 50.877 75.7415C50.877 76.0437 50.9351 76.4851 51.0514 77.0656C51.6205 79.981 51.8585 82.606 51.7657 84.9405C51.6555 87.6503 51.0921 90.0487 50.0756 92.1357C50.7292 92.6733 51.4203 93.1843 52.149 93.6689C53.0357 94.2687 53.9823 94.832 54.9887 95.359C55.8122 95.8001 56.6774 96.218 57.5845 96.6135C59.553 97.4736 62.3521 98.4259 65.9821 99.4708C66.9407 99.7457 67.9572 100.024 69.0309 100.307C69.2618 101.654 69.7031 102.879 70.355 103.983C71.2747 105.518 72.5406 106.709 74.1531 107.554C74.8265 107.912 75.5583 108.208 76.3485 108.443C76.6277 108.526 76.9064 108.596 77.1845 108.652C79.5116 109.192 81.7651 109.047 83.9444 108.217C85.0895 107.782 86.1524 107.196 87.1327 106.457C87.6635 106.741 88.1744 107.032 88.6659 107.328C93.8577 110.429 97.162 114.309 98.5792 118.966C99.4152 121.684 99.6128 124.948 99.1715 128.757C99.1437 128.996 99.1088 129.246 99.0669 129.506C98.7868 131.693 98.2581 134.759 97.4814 138.705C97.2368 140.17 97.0394 141.627 96.8891 143.078C96.5717 146.136 96.4614 149.162 96.558 152.155C97.9938 153.875 99.4513 155.896 100.931 158.218C104.253 163.468 106.332 166.656 107.168 167.783C109.735 171.233 112.418 173.805 115.217 175.501C116.82 176.477 118.742 177.33 120.984 178.062C122.227 178.469 124.283 179.038 127.151 179.769C130.426 180.609 133.156 181.492 135.34 182.418C135.751 181.302 136.332 179.839 137.082 178.027C137.464 177.093 137.796 176.228 138.075 175.431C138.565 174.122 138.92 173.012 139.138 172.104C139.661 169.909 139.742 167.893 139.382 166.058C138.929 163.747 137.779 161.587 135.932 159.577C134.318 157.835 132.291 156.307 129.852 154.995C129.12 154.597 127.953 154.028 126.35 153.288C125.396 152.853 124.281 152.353 123.005 151.789C120.101 150.512 117.865 149.373 116.297 148.375C112.662 146.075 109.596 142.985 107.099 139.106C106.163 137.651 105.339 136.135 104.624 134.559C103.532 132.142 102.708 129.587 102.15 126.893C100.49 118.879 101.157 110.197 104.154 100.847C105.153 98.0129 105.879 95.8757 106.332 94.4356C107.11 91.9501 107.575 89.7605 107.726 87.8674C107.969 84.6269 107.435 81.2412 106.123 77.7103Z" fill="#41B3E6"/>
<path d="M147.884 16.4136C148.012 16.1813 148.041 15.9373 147.972 15.6818C147.902 15.4263 147.757 15.2347 147.536 15.1069C147.292 14.9675 147.042 14.9328 146.787 15.0024C146.531 15.072 146.346 15.2229 146.229 15.4552C146.09 15.676 146.055 15.9141 146.125 16.1695C146.195 16.4253 146.346 16.6226 146.578 16.7621C146.798 16.8899 147.037 16.9188 147.292 16.8492C147.548 16.7796 147.745 16.6344 147.884 16.4136ZM146.822 11.4134C146.752 11.1579 146.607 10.9606 146.386 10.8211C146.154 10.6933 145.91 10.6641 145.654 10.734C145.399 10.8036 145.207 10.9488 145.08 11.1694C144.94 11.4019 144.905 11.6457 144.975 11.9011C145.045 12.1566 145.196 12.3542 145.428 12.4937C145.649 12.6215 145.887 12.6504 146.142 12.5808C146.398 12.5109 146.595 12.3657 146.735 12.1452C146.862 11.9129 146.891 11.6689 146.822 11.4134ZM198.409 117.828C198.177 117.701 197.933 117.671 197.677 117.741C197.422 117.811 197.224 117.956 197.085 118.177C196.957 118.409 196.928 118.653 196.998 118.908C197.067 119.164 197.213 119.355 197.433 119.483C197.665 119.623 197.909 119.658 198.165 119.588C198.42 119.518 198.618 119.367 198.757 119.135C198.885 118.914 198.914 118.676 198.844 118.421C198.775 118.165 198.629 117.967 198.409 117.828ZM202.068 118.159C201.998 117.904 201.853 117.706 201.632 117.567C201.4 117.439 201.156 117.41 200.9 117.48C200.645 117.549 200.453 117.695 200.325 117.915C200.186 118.159 200.151 118.409 200.221 118.664C200.29 118.92 200.441 119.106 200.674 119.222C200.894 119.361 201.132 119.396 201.388 119.326C201.644 119.257 201.841 119.106 201.98 118.873C202.108 118.653 202.137 118.415 202.068 118.159ZM63.8398 161.175C63.7006 161.418 63.6656 161.668 63.7352 161.924C63.8051 162.179 63.9561 162.365 64.1883 162.481C64.4089 162.621 64.6472 162.655 64.9027 162.586C65.1581 162.516 65.3555 162.365 65.495 162.133C65.6227 161.912 65.6516 161.674 65.582 161.418C65.5124 161.163 65.3672 160.966 65.1464 160.826C64.9141 160.698 64.6704 160.669 64.4149 160.739C64.1591 160.809 63.9675 160.954 63.8398 161.175ZM61.1916 162.533C61.0521 162.777 61.0175 163.027 61.0871 163.283C61.157 163.538 61.3079 163.724 61.5402 163.84C61.7607 163.98 61.999 164.014 62.2545 163.945C62.51 163.875 62.7073 163.724 62.8468 163.492C62.9745 163.271 63.0035 163.033 62.9339 162.777C62.8643 162.522 62.719 162.324 62.4982 162.185C62.2659 162.057 62.0222 162.028 61.7664 162.098C61.511 162.168 61.3194 162.313 61.1916 162.533Z" fill="white"/>
<path d="M41.1603 81.4524C41.1603 81.7197 41.2531 81.9462 41.439 82.1321C41.6248 82.318 41.8514 82.4108 42.1183 82.4108C42.3855 82.4108 42.6121 82.318 42.798 82.1321C42.9836 81.9462 43.0767 81.7197 43.0767 81.4524C43.0767 81.1855 42.9836 80.959 42.798 80.7731C42.6121 80.5872 42.3855 80.4944 42.1183 80.4944C41.8514 80.4944 41.6248 80.5872 41.439 80.7731C41.2531 80.959 41.1603 81.1855 41.1603 81.4524ZM47.223 82.1321C47.4089 81.9462 47.5017 81.7197 47.5017 81.4524C47.5017 81.1855 47.4089 80.959 47.223 80.7731C47.0372 80.5872 46.8106 80.4944 46.5437 80.4944C46.2765 80.4944 46.0499 80.5872 45.864 80.7731C45.6784 80.959 45.5853 81.1855 45.5853 81.4524C45.5853 81.7197 45.6784 81.9462 45.864 82.1321C46.0499 82.318 46.2765 82.4108 46.5437 82.4108C46.8106 82.4108 47.0372 82.318 47.223 82.1321Z" fill="white"/>
<path d="M250.257 71.8983C250.116 72.1423 250.082 72.3918 250.153 72.6475C250.222 72.903 250.374 73.0889 250.606 73.2049C250.827 73.3444 251.064 73.379 251.319 73.3094C251.574 73.2398 251.772 73.0889 251.912 72.8566C252.041 72.6358 252.07 72.3978 251.998 72.1423C251.929 71.8865 251.783 71.6892 251.563 71.5497C251.331 71.422 251.087 71.393 250.832 71.4626C250.577 71.5325 250.385 71.6774 250.257 71.8983Z" fill="#F8981C"/>
<path d="M37.4401 188.304C37.2748 189.454 37.292 190.54 37.4922 191.562C37.9221 193.781 38.6828 195.877 39.7746 197.852C40.6923 199.478 41.7781 200.878 43.0326 202.051C44.3916 203.328 45.8723 204.251 47.4754 204.821C49.055 205.39 50.2745 205.332 51.134 204.646C51.7378 204.147 52.1327 203.276 52.3186 202.033C52.8064 198.978 52.4928 195.993 51.3778 193.078C50.2281 190.047 48.4334 187.701 45.9944 186.04C44.9839 185.343 43.9734 184.89 42.963 184.681C41.7781 184.425 40.727 184.53 39.8096 184.994C38.6184 185.59 37.8285 186.693 37.4401 188.304Z" fill="#F8981C"/>
<path d="M50.7885 129.091C51.5243 129.091 52.1515 128.829 52.6697 128.306C53.1927 127.788 53.4542 127.161 53.4542 126.425C53.4542 125.689 53.1927 125.06 52.6697 124.537C52.1515 124.019 51.5243 123.76 50.7885 123.76C50.0527 123.76 49.4235 124.019 48.9005 124.537C48.3821 125.06 48.1232 125.689 48.1232 126.425C48.1232 127.161 48.3821 127.788 48.9005 128.306C49.4235 128.829 50.0527 129.091 50.7885 129.091Z" fill="white"/>
<path d="M206.913 26.3828C206.395 26.9058 206.136 27.535 206.136 28.2708C206.136 29.0069 206.395 29.6339 206.913 30.1523C207.436 30.675 208.065 30.9364 208.801 30.9364C209.537 30.9364 210.164 30.675 210.682 30.1523C211.205 29.6339 211.467 29.0069 211.467 28.2708C211.467 27.535 211.205 26.9058 210.682 26.3828C210.164 25.8647 209.537 25.6055 208.801 25.6055C208.065 25.6055 207.436 25.8647 206.913 26.3828Z" fill="#F8981C"/>
</g>
<defs>
<clipPath id="clip0_1344_6174">
<rect width="230" height="230" fill="white" transform="translate(30)"/>
</clipPath>
</defs>
</svg>
