<svg width="19" height="18" viewBox="0 0 19 18" fill="none" xmlns="http://www.w3.org/2000/svg">
<path d="M9.5001 0.970337C9.3039 0.970337 9.10719 1.05541 8.99619 1.22581L6.52705 5.03088L2.14424 6.20393C1.94804 6.25613 1.7924 6.40388 1.7294 6.59768C1.667 6.79088 1.70589 7.00355 1.83369 7.16135L4.68955 10.6864L4.45166 15.2156C4.44086 15.4184 4.53336 15.613 4.69776 15.7324C4.74526 15.7671 4.79849 15.792 4.85244 15.811C4.86785 15.8164 4.88357 15.8186 4.89932 15.8227C4.93952 15.8333 4.97972 15.8405 5.02119 15.8426C5.03111 15.8431 5.04055 15.8473 5.05049 15.8473C5.05917 15.8473 5.06759 15.843 5.07627 15.8426C5.14053 15.8399 5.20442 15.8309 5.26612 15.8074L9.5001 14.1821L13.7353 15.8074C13.8049 15.8338 13.8771 15.8473 13.9497 15.8473C14.0745 15.8473 14.1986 15.808 14.3024 15.7324C14.4668 15.613 14.5593 15.4184 14.5485 15.2156L14.3118 10.6864L17.1665 7.16135C17.2937 7.00355 17.3338 6.79088 17.2708 6.59768C17.2078 6.40448 17.0522 6.25673 16.856 6.20393L12.4731 5.03088L10.004 1.22581C9.89361 1.05541 9.6963 0.970337 9.5001 0.970337ZM9.5001 2.65432L11.4677 5.68362L11.7185 6.07034L12.1638 6.18987L15.6524 7.12385L13.379 9.93167L13.0896 10.2891L13.113 10.7496L13.3028 14.3567L9.93018 13.0617L9.5001 12.8965V2.65432Z" fill="#FF9C41"/>
</svg>
