<svg width="19" height="19" viewBox="0 0 19 19" fill="none" xmlns="http://www.w3.org/2000/svg">
<g clip-path="url(#clip0_208_955)">
<path d="M14.2745 13.1558L17.6652 16.5457L16.545 17.6659L13.1551 14.2752C11.8938 15.2863 10.3249 15.8363 8.70831 15.834C4.77531 15.834 1.58331 12.642 1.58331 8.70898C1.58331 4.77598 4.77531 1.58398 8.70831 1.58398C12.6413 1.58398 15.8333 4.77598 15.8333 8.70898C15.8356 10.3256 15.2857 11.8944 14.2745 13.1558ZM12.6864 12.5684C13.6912 11.5351 14.2522 10.1502 14.25 8.70898C14.25 5.64682 11.7697 3.16732 8.70831 3.16732C5.64615 3.16732 3.16665 5.64682 3.16665 8.70898C3.16665 11.7704 5.64615 14.2507 8.70831 14.2507C10.1495 14.2529 11.5345 13.6918 12.5677 12.6871L12.6864 12.5684Z" fill="#FAFAFB"/>
</g>
<defs>
<clipPath id="clip0_208_955">
<rect width="19" height="19" fill="white"/>
</clipPath>
</defs>
</svg>
