<svg width="24" height="24" viewBox="0 0 24 24" fill="none" xmlns="http://www.w3.org/2000/svg">
<path d="M18.3999 2.40003C18.366 2.39995 18.332 2.40204 18.2983 2.40628L18.2812 2.4094C18.2733 2.41033 18.2655 2.41137 18.2577 2.41253L7.88584 4.00784C7.69533 4.03528 7.52111 4.13049 7.39512 4.27599C7.26912 4.4215 7.19982 4.60755 7.1999 4.80003V15.3688C7.1999 16.32 7.09103 16.8 5.20303 16.8C3.11823 16.8 2.3999 18.0167 2.3999 19.2063C2.3999 20.1735 2.9647 21.6063 5.1999 21.6063C7.7031 21.6063 8.7999 20.0725 8.7999 18.7141V8.35159L17.5999 6.91721V13.7688C17.5999 14.72 17.491 15.2016 15.603 15.2016C13.5182 15.2008 12.7999 16.4167 12.7999 17.6063C12.7999 18.5735 13.3647 20.0063 15.5999 20.0063C18.1031 20.0063 19.1999 18.3209 19.1999 16.9625V3.20003C19.1999 2.98785 19.1156 2.78437 18.9656 2.63434C18.8156 2.48431 18.6121 2.40003 18.3999 2.40003V2.40003Z" fill="#4870FF"/>
</svg>
