<svg width="24" height="24" viewBox="0 0 24 24" fill="none" xmlns="http://www.w3.org/2000/svg">
<g clip-path="url(#clip0_10615_2551)">
<path d="M15.1874 -0.0109498C14.9755 -0.00763745 14.7736 0.0796106 14.6259 0.231646C14.4783 0.383681 14.397 0.588082 14.3999 0.799988V1.59999H13.5999C13.4939 1.59849 13.3886 1.61807 13.2903 1.6576C13.1919 1.69714 13.1024 1.75582 13.0269 1.83026C12.9514 1.9047 12.8914 1.99339 12.8505 2.0912C12.8096 2.18901 12.7885 2.29397 12.7885 2.39999C12.7885 2.50601 12.8096 2.61097 12.8505 2.70878C12.8914 2.80658 12.9514 2.89528 13.0269 2.96972C13.1024 3.04415 13.1919 3.10284 13.2903 3.14237C13.3886 3.1819 13.4939 3.20149 13.5999 3.19999H14.3999V3.99999C14.3984 4.106 14.418 4.21125 14.4575 4.30962C14.497 4.408 14.5557 4.49753 14.6302 4.57303C14.7046 4.64853 14.7933 4.70847 14.8911 4.74939C14.9889 4.79031 15.0939 4.81138 15.1999 4.81138C15.3059 4.81138 15.4109 4.79031 15.5087 4.74939C15.6065 4.70847 15.6952 4.64853 15.7696 4.57303C15.8441 4.49753 15.9028 4.408 15.9423 4.30962C15.9818 4.21125 16.0014 4.106 15.9999 3.99999V3.19999H16.7999C16.9059 3.20149 17.0112 3.1819 17.1095 3.14237C17.2079 3.10284 17.2974 3.04415 17.3729 2.96972C17.4484 2.89528 17.5084 2.80658 17.5493 2.70878C17.5902 2.61097 17.6113 2.50601 17.6113 2.39999C17.6113 2.29397 17.5902 2.18901 17.5493 2.0912C17.5084 1.99339 17.4484 1.9047 17.3729 1.83026C17.2974 1.75582 17.2079 1.69714 17.1095 1.6576C17.0112 1.61807 16.9059 1.59849 16.7999 1.59999H15.9999V0.799988C16.0014 0.692956 15.9813 0.586719 15.941 0.487567C15.9007 0.388414 15.8409 0.298363 15.7651 0.222746C15.6893 0.14713 15.5992 0.0874841 15.4999 0.0473423C15.4007 0.00720049 15.2944 -0.0126215 15.1874 -0.0109498V-0.0109498ZM9.9124 2.63436C5.6156 3.58876 2.3999 7.41599 2.3999 12C2.3999 17.3016 6.6983 21.6 11.9999 21.6C16.5839 21.6 20.4111 18.3843 21.3655 14.0875C20.1367 14.7915 18.7175 15.2 17.1999 15.2C12.5607 15.2 8.7999 11.4392 8.7999 6.79999C8.7999 5.28239 9.2084 3.86316 9.9124 2.63436ZM19.9999 5.59999C19.5583 5.59999 19.1999 5.95839 19.1999 6.39999V7.19999C19.1999 7.64159 18.8415 7.99999 18.3999 7.99999H17.5999C17.1583 7.99999 16.7999 8.35839 16.7999 8.79999C16.7999 9.24159 17.1583 9.59999 17.5999 9.59999H18.3999C18.8415 9.59999 19.1999 9.95839 19.1999 10.4V11.2C19.1999 11.6416 19.5583 12 19.9999 12C20.4415 12 20.7999 11.6416 20.7999 11.2V10.4C20.7999 9.95839 21.1583 9.59999 21.5999 9.59999H22.3999C22.8415 9.59999 23.1999 9.24159 23.1999 8.79999C23.1999 8.35839 22.8415 7.99999 22.3999 7.99999H21.5999C21.1583 7.99999 20.7999 7.64159 20.7999 7.19999V6.39999C20.7999 5.95839 20.4415 5.59999 19.9999 5.59999Z" fill="#8E8E93"/>
</g>
<defs>
<clipPath id="clip0_10615_2551">
<rect width="24" height="24" fill="white"/>
</clipPath>
</defs>
</svg>
