<svg width="24" height="24" viewBox="0 0 24 24" fill="none" xmlns="http://www.w3.org/2000/svg">
<path d="M14.3999 15.2V13.6C14.7599 13.4216 15.7895 12.196 15.8975 11.2384C16.1807 11.2168 16.6255 10.9568 16.7567 9.93042C16.8271 9.37922 16.5471 9.06962 16.3775 8.97202C16.3775 8.97202 16.7999 8.16962 16.7999 7.20082C16.7999 5.25842 16.0375 3.60082 14.3999 3.60082C14.3999 3.60082 13.8311 2.40082 11.9999 2.40082C8.6063 2.40082 7.1999 4.57762 7.1999 7.20082C7.1999 8.08402 7.6223 8.97202 7.6223 8.97202C7.4527 9.06962 7.1727 9.38002 7.2431 9.93042C7.3743 10.9568 7.8191 11.2168 8.1023 11.2384C8.2103 12.196 9.2399 13.4216 9.5999 13.6V15.2C8.7999 17.6 2.3999 16 2.3999 21.6H21.5999C21.5999 16 15.1999 17.6 14.3999 15.2Z" fill="#8E8E93"/>
</svg>
